<svg width="17" height="17" viewBox="0 0 17 17" fill="none" xmlns="http://www.w3.org/2000/svg">
<g clip-path="url(#clip0)">
<path d="M15.9782 7.30639C15.9086 7.2951 15.8382 7.28989 15.7678 7.29081H3.77466L4.03617 7.16917C4.29179 7.04818 4.52434 6.88352 4.7234 6.68264L8.08659 3.31945C8.52952 2.89662 8.60395 2.21642 8.26296 1.7078C7.86609 1.16581 7.105 1.04813 6.56297 1.445C6.51918 1.47708 6.47756 1.51205 6.43844 1.54968L0.35674 7.63138C-0.118546 8.10614 -0.118964 8.87627 0.355789 9.35155C0.356093 9.35186 0.356436 9.3522 0.35674 9.3525L6.43844 15.4342C6.91411 15.9085 7.68424 15.9075 8.15862 15.4318C8.19594 15.3944 8.2308 15.3545 8.26296 15.3126C8.60395 14.804 8.52952 14.1238 8.08659 13.7009L4.72949 10.3317C4.55103 10.153 4.34584 10.0032 4.12131 9.88769L3.75641 9.72349H15.7009C16.3222 9.74656 16.8674 9.31252 16.9841 8.70176C17.0917 8.03867 16.6413 7.41396 15.9782 7.30639Z" fill="#66728B"/>
</g>
<defs>
<clipPath id="clip0">
<rect width="17" height="17" fill="white"/>
</clipPath>
</defs>
</svg>
