<svg width="20" height="20" viewBox="0 0 20 20" fill="none" xmlns="http://www.w3.org/2000/svg">
<g clip-path="url(#clip0)">
<path d="M20 9.99993L17.7359 7.4862L18.0904 4.12092L14.7797 3.42007L13.0909 0.486328L10 1.86774L9.58282 9.99993L10 18.1321L13.0909 19.5135L14.7797 16.5798L18.0904 15.8789L17.7359 12.5136L20 9.99993Z" fill="#04EB84"/>
<path d="M6.90906 0.486328L5.22032 3.42007L1.9096 4.12096L2.26409 7.4862L0 9.99993L2.26409 12.5136L1.9096 15.8789L5.22032 16.5798L6.9091 19.5135L10 18.1321V1.86774L6.90906 0.486328Z" fill="#04EB84"/>
<path d="M14.1922 7.8106L13.3169 7.0293L10 10.7454L9.58282 11.6689L10 12.5074L14.1922 7.8106Z" fill="#F7F0EB"/>
<path d="M6.51418 9.11621L5.68457 9.94585L9.17262 13.4339L10 12.507V10.745L9.1242 11.7262L6.51418 9.11621Z" fill="#FFFBF5"/>
</g>
<defs>
<clipPath id="clip0">
<rect width="20" height="20" fill="white"/>
</clipPath>
</defs>
</svg>
