<svg width="14" height="9" viewBox="0 0 14 9" fill="none" xmlns="http://www.w3.org/2000/svg">
<path d="M13.7072 1.20685C13.5196 1.01938 13.2653 0.914062 13.0002 0.914063C12.735 0.914062 12.4807 1.01938 12.2932 1.20685L7.70716 5.79285C7.51703 5.97534 7.2637 6.07724 7.00016 6.07724C6.73662 6.07724 6.48329 5.97534 6.29316 5.79285L1.70716 1.20685C1.51856 1.02469 1.26596 0.923896 1.00376 0.926175C0.741565 0.928453 0.490753 1.03362 0.305345 1.21903C0.119937 1.40444 0.0147674 1.65525 0.012489 1.91745C0.0102106 2.17964 0.111005 2.43225 0.293163 2.62085L4.87816 7.20685C5.15675 7.48548 5.48749 7.7065 5.8515 7.8573C6.21551 8.00809 6.60565 8.08571 6.99966 8.08571C7.39367 8.08571 7.78382 8.00809 8.14783 7.8573C8.51184 7.7065 8.84258 7.48548 9.12116 7.20685L13.7072 2.62085C13.8946 2.43332 13.9999 2.17901 13.9999 1.91385C13.9999 1.64868 13.8946 1.39438 13.7072 1.20685Z" fill="#2699FB"/>
</svg>
