<svg width="1440" height="531" viewBox="0 0 1440 531" fill="none" xmlns="http://www.w3.org/2000/svg">
<path d="M0 0H1440V531L0 491.038V0Z" fill="#007BFF"/>
<mask id="mask0" mask-type="alpha" maskUnits="userSpaceOnUse" x="737" y="0" width="703" height="531">
<path d="M737 0H1440V531L737 491.038V0Z" fill="#2699FB"/>
</mask>
<g mask="url(#mask0)">
<path fill-rule="evenodd" clip-rule="evenodd" d="M778.618 107.118H778.695C828.194 201.058 926.74 264.513 1039.93 264.513C1153.12 264.513 1251.66 201.058 1301.16 107.118H1301.74C1320.08 72.4808 1331.79 33.2592 1334.85 -7.99979H1304.29H1264.05H1235.02C1228.4 51.5966 1194.78 103.552 1147.41 134.624C1116.33 154.999 1079.66 166.714 1039.93 166.714C1000.71 166.714 963.523 154.999 932.961 134.624C885.08 103.552 851.462 51.5966 845.349 -7.99979H799.503V-8H745C748.056 33.259 759.772 72.4805 778.618 107.118ZM845.852 315.951V517.662H945.688V356.191C910.542 347.023 876.923 333.779 845.852 315.951ZM955.371 -7.99979H1124.99C1115.31 29.6936 1080.68 57.709 1039.93 57.709C999.177 57.709 965.049 29.6936 955.371 -7.99979ZM1247.24 309.341V517.673H1147.4V353.147C1183.06 342.959 1216.67 328.187 1247.24 309.341Z" fill="#F1F9FF" fill-opacity="0.15"/>
</g>
</svg>
