<svg width="37" height="37" viewBox="0 0 37 37" fill="none" xmlns="http://www.w3.org/2000/svg">
<g clip-path="url(#clip0)">
<path d="M23.921 20.5284C23.921 23.7453 21.304 26.3624 18.087 26.3624C14.87 26.3624 12.254 23.7453 12.254 20.5284C12.254 17.3114 14.87 14.6944 18.087 14.6944C21.304 14.6944 23.921 17.3124 23.921 20.5284ZM36.174 12.2444V28.8144C36.174 31.0233 34.383 32.8144 32.174 32.8144H4C1.791 32.8144 0 31.0233 0 28.8144V12.2444C0 10.0354 1.791 8.24435 4 8.24435H8.92V6.86035C8.92 4.92735 10.486 3.36035 12.42 3.36035H23.754C25.688 3.36035 27.254 4.92735 27.254 6.86035V8.24335H32.174C34.383 8.24435 36.174 10.0354 36.174 12.2444ZM26.921 20.5284C26.921 15.6574 22.958 11.6944 18.087 11.6944C13.217 11.6944 9.254 15.6574 9.254 20.5284C9.254 25.3994 13.217 29.3624 18.087 29.3624C22.958 29.3624 26.921 25.3994 26.921 20.5284Z" fill="white"/>
</g>
<defs>
<clipPath id="clip0">
<rect width="36.174" height="36.174" fill="white"/>
</clipPath>
</defs>
</svg>
