<svg width="54" height="36" viewBox="0 0 54 36" fill="none" xmlns="http://www.w3.org/2000/svg">
<g clip-path="url(#clip0)">
<path d="M17.9795 0.500977C8.31552 0.500977 0.479492 8.33547 0.479492 18.0002C0.479492 27.6649 8.31475 35.4994 17.9795 35.4994C27.645 35.4994 35.4795 27.6649 35.4795 18.0002C35.4795 8.33547 27.645 0.500977 17.9795 0.500977ZM17.9795 5.73345C21.1772 5.73345 23.7685 8.32547 23.7685 11.5217C23.7685 14.7187 21.1772 17.3099 17.9795 17.3099C14.7833 17.3099 12.192 14.7187 12.192 11.5217C12.192 8.32547 14.7833 5.73345 17.9795 5.73345ZM17.9756 30.9242C14.7864 30.9242 11.8653 29.7627 9.6123 27.8402C9.06345 27.3721 8.74675 26.6856 8.74675 25.9654C8.74675 22.7238 11.3703 20.1295 14.6126 20.1295H21.3479C24.591 20.1295 27.2045 22.7238 27.2045 25.9654C27.2045 26.6864 26.8894 27.3713 26.3398 27.8394C24.0875 29.7627 21.1657 30.9242 17.9756 30.9242Z" fill="#2699FB"/>
</g>
<g clip-path="url(#clip1)">
<path d="M40.52 15.75L47.02 22.25L53.52 15.75H40.52Z" fill="#66728B"/>
</g>
<defs>
<clipPath id="clip0">
<rect width="35" height="35" fill="white" transform="translate(0.479492 0.5)"/>
</clipPath>
<clipPath id="clip1">
<rect width="13" height="13" fill="white" transform="translate(40.52 12.5)"/>
</clipPath>
</defs>
</svg>
