<svg width="128" height="22" viewBox="0 0 128 22" fill="none" xmlns="http://www.w3.org/2000/svg">
<path fill-rule="evenodd" clip-rule="evenodd" d="M1.27898 0H2.28101H4.19952C4.45534 2.49419 5.86231 4.6686 7.86619 5.96899C9.14526 6.8217 10.7015 7.31201 12.3429 7.31201C14.0057 7.31201 15.5406 6.8217 16.841 5.96899C18.8236 4.6686 20.2305 2.49419 20.5077 0H21.7226H23.4069H24.6858C24.5579 1.72674 24.0676 3.36822 23.3001 4.81783H23.2759C21.2043 8.74936 17.08 11.405 12.3429 11.405C7.60582 11.405 3.48156 8.74936 1.40997 4.81783H1.40698C0.618217 3.36822 0.127907 1.72674 0 0H1.27898ZM4.22095 13.5578V21.9997H8.39925V15.2419C6.92832 14.8582 5.52134 14.304 4.22095 13.5578ZM8.80429 0H15.9031C15.4981 1.57752 14.0485 2.75 12.3431 2.75C10.6376 2.75 9.20933 1.57752 8.80429 0ZM21.0193 13.2811V22.0001H16.841V15.1145C18.3332 14.6881 19.7402 14.0699 21.0193 13.2811Z" fill="#1B2A4D"/>
<path d="M41.862 17.1884H31.8381V15.5742L38.217 7.02566H32.2981V4.74316H41.8447V6.31401L35.6047 14.9146H41.862V17.1884Z" fill="#1B2A4D"/>
<path d="M51.4173 13.526H45.6199C45.7125 14.8162 46.5254 15.4613 48.0586 15.4613C49.0364 15.4613 49.8956 15.2299 50.6362 14.767V16.7458C49.8146 17.1855 48.7471 17.4054 47.4337 17.4054C45.9989 17.4054 44.8851 17.009 44.0924 16.2164C43.2998 15.418 42.9035 14.3071 42.9035 12.8838C42.9035 11.4084 43.3316 10.2397 44.1879 9.37758C45.0442 8.5155 46.0972 8.08446 47.347 8.08446C48.643 8.08446 49.6439 8.46921 50.3498 9.23872C51.0614 10.0082 51.4173 11.0526 51.4173 12.3717V13.526ZM48.8744 11.8423C48.8744 10.5695 48.3595 9.93302 47.3296 9.93302C46.8899 9.93302 46.508 10.1153 46.184 10.4798C45.8658 10.8443 45.672 11.2985 45.6025 11.8423H48.8744Z" fill="#1B2A4D"/>
<path d="M58.8462 10.7749C58.5164 10.5955 58.1317 10.5058 57.6919 10.5058C57.096 10.5058 56.6303 10.7257 56.2947 11.1654C55.9591 11.5993 55.7913 12.1924 55.7913 12.9445V17.1884H53.0488V8.30143H55.7913V9.95038H55.826C56.26 8.74693 57.041 8.14521 58.1693 8.14521C58.4586 8.14521 58.6842 8.17992 58.8462 8.24935V10.7749Z" fill="#1B2A4D"/>
<path d="M64.2964 17.4054C62.8153 17.4054 61.6494 16.9917 60.7989 16.1643C59.9542 15.3312 59.5318 14.2029 59.5318 12.7796C59.5318 11.31 59.9715 10.1616 60.851 9.33419C61.7304 8.50104 62.9194 8.08446 64.4179 8.08446C65.8933 8.08446 67.0505 8.50104 67.8894 9.33419C68.7283 10.1616 69.1478 11.258 69.1478 12.6234C69.1478 14.0988 68.7139 15.2646 67.846 16.1209C66.9839 16.9772 65.8007 17.4054 64.2964 17.4054ZM64.3659 10.1847C63.7178 10.1847 63.2145 10.4075 62.8558 10.853C62.497 11.2985 62.3177 11.9291 62.3177 12.7449C62.3177 14.4517 63.0062 15.3051 64.3832 15.3051C65.6966 15.3051 66.3533 14.4286 66.3533 12.6755C66.3533 11.015 65.6908 10.1847 64.3659 10.1847Z" fill="#1B2A4D"/>
<path d="M76.2991 17.0843C75.894 17.2983 75.2836 17.4054 74.4679 17.4054C72.5354 17.4054 71.5692 16.4015 71.5692 14.3939V10.3236H70.1285V8.30143H71.5692V6.38344L74.303 5.60235V8.30143H76.2991V10.3236H74.303V13.9165C74.303 14.8423 74.6704 15.3051 75.4052 15.3051C75.6944 15.3051 75.9924 15.2212 76.2991 15.0534V17.0843Z" fill="#1B2A4D"/>
<path d="M82.0183 17.4054C80.5372 17.4054 79.3713 16.9917 78.5208 16.1643C77.6761 15.3312 77.2537 14.2029 77.2537 12.7796C77.2537 11.31 77.6934 10.1616 78.5729 9.33419C79.4523 8.50104 80.6413 8.08446 82.1398 8.08446C83.6152 8.08446 84.7723 8.50104 85.6113 9.33419C86.4502 10.1616 86.8697 11.258 86.8697 12.6234C86.8697 14.0988 86.4358 15.2646 85.5679 16.1209C84.7058 16.9772 83.5226 17.4054 82.0183 17.4054ZM82.0877 10.1847C81.4397 10.1847 80.9364 10.4075 80.5776 10.853C80.2189 11.2985 80.0396 11.9291 80.0396 12.7449C80.0396 14.4517 80.7281 15.3051 82.1051 15.3051C83.4185 15.3051 84.0752 14.4286 84.0752 12.6755C84.0752 11.015 83.4127 10.1847 82.0877 10.1847Z" fill="#1B2A4D"/>
<path d="M99.6881 17.1884H96.8762V12.12H91.7211V17.1884H88.9179V4.74316H91.7211V9.70737H96.8762V4.74316H99.6881V17.1884Z" fill="#1B2A4D"/>
<path d="M110.259 13.526H104.461C104.554 14.8162 105.367 15.4613 106.9 15.4613C107.878 15.4613 108.737 15.2299 109.478 14.767V16.7458C108.656 17.1855 107.589 17.4054 106.275 17.4054C104.84 17.4054 103.727 17.009 102.934 16.2164C102.141 15.418 101.745 14.3071 101.745 12.8838C101.745 11.4084 102.173 10.2397 103.029 9.37758C103.886 8.5155 104.939 8.08446 106.188 8.08446C107.484 8.08446 108.485 8.46921 109.191 9.23872C109.903 10.0082 110.259 11.0526 110.259 12.3717V13.526ZM107.716 11.8423C107.716 10.5695 107.201 9.93302 106.171 9.93302C105.731 9.93302 105.35 10.1153 105.026 10.4798C104.707 10.8443 104.513 11.2985 104.444 11.8423H107.716Z" fill="#1B2A4D"/>
<path d="M117.688 10.7749C117.358 10.5955 116.973 10.5058 116.533 10.5058C115.938 10.5058 115.472 10.7257 115.136 11.1654C114.801 11.5993 114.633 12.1924 114.633 12.9445V17.1884H111.89V8.30143H114.633V9.95038H114.668C115.101 8.74693 115.883 8.14521 117.011 8.14521C117.3 8.14521 117.526 8.17992 117.688 8.24935V10.7749Z" fill="#1B2A4D"/>
<path d="M123.138 17.4054C121.657 17.4054 120.491 16.9917 119.64 16.1643C118.796 15.3312 118.373 14.2029 118.373 12.7796C118.373 11.31 118.813 10.1616 119.692 9.33419C120.572 8.50104 121.761 8.08446 123.259 8.08446C124.735 8.08446 125.892 8.50104 126.731 9.33419C127.57 10.1616 127.989 11.258 127.989 12.6234C127.989 14.0988 127.555 15.2646 126.688 16.1209C125.825 16.9772 124.642 17.4054 123.138 17.4054ZM123.207 10.1847C122.559 10.1847 122.056 10.4075 121.697 10.853C121.339 11.2985 121.159 11.9291 121.159 12.7449C121.159 14.4517 121.848 15.3051 123.225 15.3051C124.538 15.3051 125.195 14.4286 125.195 12.6755C125.195 11.015 124.532 10.1847 123.207 10.1847Z" fill="#1B2A4D"/>
</svg>
